<?xml version="1.0" encoding="UTF-8" standalone="no"?>
<!-- Created with Inkscape (http://www.inkscape.org/) -->

<svg
   width="512"
   height="512"
   viewBox="0 0 512 512"
   version="1.1"
   id="svg5"
   inkscape:version="1.1.2 (0a00cf5339, 2022-02-04, custom)"
   sodipodi:docname="logo.svg"
   inkscape:export-filename="/mnt/data/Files/Projects/Programming/InfDev/Lipoic-Assets/logo.png"
   inkscape:export-xdpi="96"
   inkscape:export-ydpi="96"
   xmlns:inkscape="http://www.inkscape.org/namespaces/inkscape"
   xmlns:sodipodi="http://sodipodi.sourceforge.net/DTD/sodipodi-0.dtd"
   xmlns:xlink="http://www.w3.org/1999/xlink"
   xmlns="http://www.w3.org/2000/svg"
   xmlns:svg="http://www.w3.org/2000/svg">
  <sodipodi:namedview
     id="namedview7"
     pagecolor="#505050"
     bordercolor="#eeeeee"
     borderopacity="1"
     inkscape:pageshadow="0"
     inkscape:pageopacity="0"
     inkscape:pagecheckerboard="0"
     inkscape:document-units="px"
     showgrid="false"
     inkscape:zoom="0.285"
     inkscape:cx="-268.42105"
     inkscape:cy="222.80702"
     inkscape:window-width="1920"
     inkscape:window-height="1011"
     inkscape:window-x="0"
     inkscape:window-y="0"
     inkscape:window-maximized="1"
     inkscape:current-layer="layer1"
     inkscape:snap-bbox="true"
     inkscape:bbox-paths="true"
     inkscape:bbox-nodes="true"
     inkscape:snap-bbox-edge-midpoints="true"
     inkscape:snap-bbox-midpoints="true"
     inkscape:object-paths="true"
     inkscape:snap-intersection-paths="true"
     inkscape:snap-smooth-nodes="true"
     inkscape:snap-midpoints="true"
     inkscape:snap-object-midpoints="true"
     inkscape:snap-center="true"
     inkscape:snap-text-baseline="true"
     inkscape:snap-page="true"
     inkscape:snap-global="true" />
  <defs
     id="defs2">
    <inkscape:perspective
       sodipodi:type="inkscape:persp3d"
       inkscape:vp_x="-1.41472 : 261.98034 : 1"
       inkscape:vp_y="0 : 1000 : 0"
       inkscape:vp_z="510.58528 : 261.98034 : 1"
       inkscape:persp3d-origin="254.58528 : 176.64701 : 1"
       id="perspective5196" />
    <linearGradient
       inkscape:collect="always"
       id="linearGradient7318">
      <stop
         style="stop-color:#5efff2;stop-opacity:1"
         offset="0"
         id="stop7314" />
      <stop
         style="stop-color:#b54cff;stop-opacity:1"
         offset="1"
         id="stop7316" />
    </linearGradient>
    <inkscape:path-effect
       effect="fill_between_many"
       method="originald"
       linkedpaths="#path40342,0,1"
       id="path-effect40401" />
    <linearGradient
       inkscape:collect="always"
       xlink:href="#linearGradient7318"
       id="linearGradient18231"
       gradientUnits="userSpaceOnUse"
       gradientTransform="matrix(1.7211103,0,0,0.99664358,-184.40034,0.85533748)"
       x1="351.30814"
       y1="-2.1903737"
       x2="160.3914"
       y2="515.13287" />
  </defs>
  <rect
     style="fill:#262a33;fill-opacity:1;stroke:none;stroke-width:10;stroke-linecap:butt;stroke-linejoin:round;stroke-miterlimit:4;stroke-dasharray:none;stroke-opacity:0;paint-order:stroke fill markers"
     id="rect26748"
     width="512"
     height="512"
     x="0"
     y="0"
     ry="93.786728"
     sodipodi:insensitive="true" />
  <g
     inkscape:label="Layer 1"
     inkscape:groupmode="layer"
     id="layer1">
    <path
       id="path1657-8"
       style="display:inline;mix-blend-mode:normal;fill:url(#linearGradient18231);fill-opacity:1;stroke:#4d4d4d;stroke-width:5;stroke-linecap:butt;stroke-linejoin:round;stroke-miterlimit:4;stroke-dasharray:none;stroke-opacity:1;paint-order:normal"
       d="M 255.87891,1.1699219 V 1.3867188 C 74.968565,264.85004 36.886636,496.74217 255.87891,511.72266 v 0.0391 c 0.0187,-0.005 0.0364,-0.0103 0.0547,-0.0156 v 0.0117 c 0.011,-0.003 0.0221,-0.007 0.0332,-0.01 0.0111,0.003 0.0222,0.007 0.0332,0.01 v -0.0117 c 0.0183,0.005 0.036,0.0107 0.0547,0.0156 v -0.0391 c 218.99227,-14.98049 180.91034,-246.87262 0,-510.3359412 V 1.1699219 c -0.0189,0.030808 -0.0364,0.059797 -0.0547,0.089844 v -0.070312 c -0.011,0.018275 -0.0221,0.036543 -0.0332,0.054687 -0.0111,-0.018145 -0.0222,-0.036439 -0.0332,-0.054687 v 0.070312 c -0.0183,-0.030066 -0.0358,-0.059064 -0.0547,-0.089844 z m -0.31055,86.7148441 c 0,0 0.1799,0.321854 0.31055,0.554687 v 0.234375 c 8.1e-4,-0.002 0.0335,-0.05837 0.0547,-0.0957 v 0.07422 c 0.008,-0.0138 0.0207,-0.03684 0.0332,-0.05859 0.0125,0.02175 0.0254,0.04479 0.0332,0.05859 v -0.07422 c 0.0212,0.03733 0.0539,0.09366 0.0547,0.0957 v -0.234375 c 0.13065,-0.232833 0.31054,-0.554687 0.31054,-0.554687 0,2e-6 25.80383,43.172344 51.34571,95.853514 -13.32292,11.99895 -34.643,25.88765 -51.74414,25.86914 -17.10115,0.0185 -38.42123,-13.87019 -51.74414,-25.86914 25.54188,-52.68117 51.3457,-95.853512 51.3457,-95.853514 z M 192.16992,220.74609 c 0,0 45.12636,31.74804 63.77539,31.74805 0.007,0 0.0141,-8.3e-4 0.0215,-0.002 0.007,0.001 0.0148,0.002 0.0215,0.002 18.64903,-10e-6 63.77539,-31.74805 63.77539,-31.74805 0,0 32.6272,64.51271 36.91797,100.71094 C 365.34055,394.50597 320.63068,459.32261 256,459.37891 v -0.002 c -0.0112,2e-5 -0.0222,0.001 -0.0332,0.002 -0.011,-5.8e-4 -0.022,-0.002 -0.0332,-0.002 v 0.002 c -64.63068,-0.0563 -109.34055,-64.87294 -100.68164,-137.92188 4.29077,-36.19823 36.91797,-100.71094 36.91797,-100.71094 z" />
    <g
       id="g8066"
       inkscape:label="baseline"
       style="display:none">
      <rect
         style="opacity:1;fill:#f3d39c;fill-opacity:0.25;stroke:none;stroke-width:0.1;stroke-linejoin:round"
         id="rect954"
         width="256"
         height="512"
         x="0"
         y="0"
         inkscape:label="b" />
      <rect
         style="opacity:1;fill:#f3d39c;fill-opacity:0.25;stroke:none;stroke-width:0.1;stroke-linejoin:round"
         id="rect978"
         width="512"
         height="256"
         x="0"
         y="256"
         inkscape:label="a" />
      <rect
         style="fill:#c2f39c;fill-opacity:0.25;stroke:none;stroke-width:0.1;stroke-linejoin:round"
         id="rect954-0"
         width="256"
         height="512"
         x="255.99998"
         y="7.6293945e-06"
         inkscape:label="b" />
      <rect
         style="fill:#c2f39c;fill-opacity:0.25;stroke:none;stroke-width:0.1;stroke-linejoin:round"
         id="rect978-8"
         width="512"
         height="256"
         x="-1.2397766e-05"
         y="0"
         inkscape:label="a" />
    </g>
    <g
       id="g6284"
       inkscape:label="guideline"
       style="display:none"
       sodipodi:insensitive="true">
      <path
         style="display:inline;fill:none;stroke:#000000;stroke-width:1px;stroke-linecap:butt;stroke-linejoin:miter;stroke-opacity:1"
         d="M 256.47133,512.37447 391.99574,129.58108"
         id="path4515-5"
         inkscape:label="guideline" />
      <path
         style="fill:none;stroke:#000000;stroke-width:1px;stroke-linecap:butt;stroke-linejoin:miter;stroke-opacity:1"
         d="M 120.47559,128.7071 256,511.50049"
         id="path4515"
         inkscape:label="guideline" />
      <path
         style="fill:none;stroke:#000000;stroke-width:1.41421px;stroke-linecap:butt;stroke-linejoin:miter;stroke-opacity:1"
         d="M 0,128.7071 H 512"
         id="path2975"
         inkscape:label="guideline" />
    </g>
  </g>
</svg>
