<svg xmlns="http://www.w3.org/2000/svg" width="512" height="512" style="overflow: visible;" viewBox="0 0 512 512"><defs transform="matrix(1.0480905627469523, 0, 0, 1.0480905627469523, -12.597019514042245, -18.50749615786127)" data-uid="o_en94c223c_4"><linearGradient id="go_en94c223c_39" x1="9%" y1="21%" x2="91%" y2="79%" data-uid="go_en94c223c_39"><stop offset="0%" style="stop-color: rgb(104, 102, 250); stop-opacity: 1;" data-uid="o_en94c223c_40"></stop><stop offset="100%" style="stop-color: rgb(109, 238, 214); stop-opacity: 1;" data-uid="o_en94c223c_41"></stop></linearGradient></defs><g transform="matrix(8.545701026916504, 0, 0, 8.366992950439453, -17.224360448457446, -11.7437744140625)" fill="url(#go_en94c223c_39)" data-uid="o_en94c223c_9"><path d="M51.5,36.6c-0.3-1.1-0.7-2.2-1.2-3.2c-0.4-1-2.6-4.6-17.8-31C32.5,2.1,32.2,2,32,2      c-0.2,0-0.5,0.1-0.6,0.3c-15.2,26.4-17.4,30-17.8,31c-0.4,1-0.9,2.1-1.2,3.2c-1.3,4.9-0.8,10,1.6,14.5c0.1,0.3,0.3,0.5,0.4,0.8      l0,0c0,0,0,0,0,0c0,0,0,0,0,0l0,0C18.2,58.4,25,62,32,62c7,0,13.8-3.6,17.5-10.1l0,0c0,0,0,0,0,0c0,0,0,0,0,0l0,0      c0.2-0.3,0.3-0.5,0.4-0.8C52.3,46.6,52.9,41.5,51.5,36.6z M17.4,32.2C17.4,32.2,17.4,32.2,17.4,32.2c-0.2,0.4-0.7,0.5-1,0.3      c-0.4-0.2-0.5-0.7-0.3-1C16.2,31.3,29.2,8.8,32,3.9c0.2,0.4,0.5,0.9,0.9,1.5L32,6.9L17.4,32.2z M19.4,32.5      c-0.4-0.2-0.5-0.7-0.3-1c0.1-0.2,0.5-0.9,0.5-0.9L32,9.1l0.9,1.5c-0.3,0.5-0.5,0.9-0.9,1.5c-3.4,5.8-9.1,15.7-11.4,19.8      C20.5,32,20.1,32.9,19.4,32.5z M33.6,17.1c2.8,4.8,6,10.4,7.8,13.5c0,0,0.4,0.6,0.5,0.9c0.2,0.4,0.1,0.8-0.3,1      c-0.3,0.2-0.6,0.1-0.9-0.1c0,0-0.1-0.1-0.1-0.1L40.5,32l-7.7-13.4L33.6,17.1z M32,17.3L23.5,32l-0.1,0.2c0,0.1-0.1,0.1-0.1,0.1      c-0.2,0.2-0.6,0.3-0.9,0.1c-0.4-0.2-0.5-0.7-0.3-1c0.1-0.2,0.5-0.9,0.5-0.9c2.2-3.8,6.4-11,9.4-16.3c0.3,0.5,0.6,1,0.9,1.5      L32,17.3z M41.5,47.2c-2,3.5-5.7,5.4-9.5,5.4c-3.8,0-7.4-1.9-9.5-5.4c-2-3.4-1.9-7.4-0.1-10.6c0.1-0.2,0.2-0.4,2.3-3.9L32,19.9      l7.3,12.8c2,3.5,2.1,3.7,2.3,3.9C43.3,39.8,43.4,43.8,41.5,47.2z M44.6,32.5c-0.7,0.4-1.1-0.5-1.2-0.6      c-2.2-3.8-7.4-12.8-10.8-18.7c0.3-0.5,0.6-1,0.9-1.5l10.9,18.9c0,0,0.4,0.7,0.5,0.9C45.1,31.9,45,32.3,44.6,32.5z M47.6,32.5      c-0.4,0.2-0.8,0.1-1-0.3c0,0,0,0,0,0L32.7,8l0.9-1.5c4.4,7.6,14.3,24.8,14.4,25C48.1,31.9,48,32.3,47.6,32.5z" transform="matrix(1, 0, 0, 1, 0, 0)" fill="url(#go_en94c223c_39)" data-uid="o_en94c223c_10" stroke="#000000" stroke-width="0.3"></path></g></svg>